<svg width="147" height="99" viewBox="0 0 147 99" fill="none" xmlns="http://www.w3.org/2000/svg">
<g clip-path="url(#clip0_7_150)">
<path d="M142.665 95.2749H4.10522V95.5725H142.665V95.2749Z" fill="#3F3D56"/>
<path d="M15.0034 41.2867L14.8872 41.5608L142.506 95.3988L142.622 95.1247L15.0034 41.2867Z" fill="#3F3D56"/>
<path d="M142.665 41.2618H4.10522V41.5594H142.665V41.2618Z" fill="#3F3D56"/>
<path d="M123.873 47.7346C123.892 54.0309 122.667 60.2694 120.268 66.0933C117.869 71.9172 114.344 77.2125 109.893 81.6765C109.402 82.169 108.9 82.6501 108.388 83.1198C107.77 83.6882 107.137 84.2392 106.488 84.7729C106.364 84.8756 106.24 84.9768 106.115 85.0764C103.55 87.1501 100.772 88.9472 97.828 90.4376C97.6535 90.5254 97.479 90.6132 97.303 90.6994C97.0241 90.8363 96.7422 90.9703 96.4603 91.1012C86.0252 95.9455 74.1581 96.7489 63.1626 93.3555C43.9119 87.3947 29.9082 69.2252 29.9082 47.7346C29.9082 21.3962 50.9428 0.0454102 76.8904 0.0454102C102.838 0.0454102 123.873 21.3962 123.873 47.7346Z" fill="#6C63FF"/>
<path d="M87.351 37.7305L87.3883 37.729L87.2411 37.4067C87.0759 36.9502 86.8739 36.5078 86.6372 36.0838L82.3216 26.6307C82.1838 26.329 81.9608 26.074 81.6798 25.8969C81.3989 25.7199 81.0722 25.6285 80.74 25.634L75.2746 25.7249C74.9212 25.7307 74.5783 25.8459 74.2934 26.0545C74.0084 26.2631 73.7954 26.5548 73.6837 26.8894L70.2479 37.1843C70.1348 37.4726 70.0367 37.7665 69.954 38.0649L69.8373 38.4144L69.8647 38.4134C69.5463 39.771 69.5466 41.1837 69.8654 42.5412C70.1842 43.8988 70.8129 45.1645 71.7026 46.2398C72.5923 47.3151 73.7189 48.1709 74.9946 48.7405C76.2703 49.3101 77.6606 49.578 79.0572 49.5235C80.4537 49.4689 81.8188 49.0934 83.046 48.4261C84.2731 47.7588 85.3292 46.8177 86.1319 45.6763C86.9347 44.5349 87.4623 43.224 87.6738 41.8458C87.8852 40.4675 87.7747 39.0591 87.351 37.7305H87.351Z" fill="#3F3D56"/>
<path d="M77.1654 28.0366L75.4456 37.4158L75.6396 37.4512L77.3594 28.072L77.1654 28.0366Z" fill="#6C63FF"/>
<path d="M79.232 28.0021L79.0392 28.0439L81.0694 37.3612L81.2622 37.3194L79.232 28.0021Z" fill="#6C63FF"/>
<path d="M74.6789 21.1085L81.6822 20.9921C81.7345 20.9912 81.785 21.0111 81.8226 21.0474C81.8602 21.0837 81.8819 21.1334 81.8827 21.1856C81.8836 21.2378 81.8636 21.2882 81.8273 21.3257C81.7909 21.3633 81.7411 21.3848 81.6887 21.3857L74.6855 21.5021C74.6595 21.5025 74.6338 21.4979 74.6097 21.4884C74.5856 21.4789 74.5636 21.4647 74.545 21.4468C74.5264 21.4288 74.5115 21.4074 74.5012 21.3836C74.4909 21.3599 74.4853 21.3344 74.4849 21.3086C74.4845 21.2827 74.4891 21.2571 74.4987 21.233C74.5082 21.209 74.5223 21.187 74.5403 21.1684C74.5584 21.1499 74.5799 21.135 74.6036 21.1247C74.6274 21.1144 74.653 21.1089 74.6789 21.1085Z" fill="#3F3D56"/>
<path d="M74.7528 22.5837L81.7561 22.4673C81.8085 22.4664 81.859 22.4863 81.8966 22.5226C81.9342 22.5589 81.9558 22.6086 81.9567 22.6608C81.9576 22.713 81.9376 22.7634 81.9013 22.801C81.8649 22.8385 81.815 22.8601 81.7627 22.8609L74.7594 22.9773C74.7071 22.9782 74.6566 22.9583 74.619 22.922C74.5814 22.8857 74.5597 22.836 74.5589 22.7838C74.558 22.7316 74.5779 22.6812 74.6143 22.6437C74.6507 22.6061 74.7005 22.5846 74.7528 22.5837Z" fill="#3F3D56"/>
<path d="M74.8268 24.0589L81.8301 23.9425C81.8824 23.9417 81.933 23.9616 81.9706 23.9979C82.0082 24.0342 82.0298 24.0839 82.0307 24.1361C82.0316 24.1883 82.0116 24.2387 81.9752 24.2762C81.9389 24.3137 81.889 24.3353 81.8367 24.3362L74.8334 24.4525C74.7811 24.4534 74.7306 24.4335 74.6929 24.3972C74.6553 24.3609 74.6337 24.3112 74.6328 24.259C74.632 24.2068 74.6519 24.1564 74.6883 24.1189C74.7247 24.0814 74.7745 24.0598 74.8268 24.0589Z" fill="#3F3D56"/>
<path d="M78.157 19.6464C76.7679 19.6695 75.6547 20.4606 75.6706 21.4133L80.7011 21.3297C80.6852 20.377 79.5462 19.6233 78.157 19.6464Z" fill="#3F3D56"/>
<path d="M78.9312 38.801C79.2056 38.8195 79.4657 38.9304 79.6688 39.1155C79.7208 39.1585 79.772 39.2036 79.8232 39.2488C79.9855 39.4178 80.1843 39.5475 80.4045 39.6282C80.8865 39.7594 81.3624 39.3792 81.764 38.9899L81.9015 39.131C81.46 39.5591 80.9308 39.9754 80.3525 39.8181C80.1028 39.7304 79.8769 39.586 79.6926 39.3963C79.6429 39.3524 79.5932 39.3087 79.5429 39.267C79.3781 39.1306 79.0596 38.9183 78.7765 39.0284C78.6591 39.0855 78.5546 39.166 78.4694 39.2648C78.4034 39.334 78.3321 39.3981 78.2562 39.4563C78.1007 39.5663 77.9161 39.6281 77.7256 39.6337C77.5351 39.6394 77.3472 39.5887 77.1854 39.4881C77.1273 39.4494 77.0713 39.4075 77.0178 39.3627C76.93 39.2759 76.8207 39.2138 76.7011 39.1828C76.5334 39.1593 76.3811 39.2787 76.2196 39.405C76.067 39.5531 75.8718 39.6498 75.6613 39.6817C75.6542 39.6821 75.6469 39.6823 75.6398 39.6824C75.2466 39.689 74.9972 39.2967 74.843 38.9984L75.0184 38.9082C75.228 39.3136 75.4301 39.4985 75.6509 39.4851C75.8199 39.4528 75.9755 39.371 76.0978 39.2502C76.2845 39.104 76.4778 38.9529 76.7283 38.9878C76.8843 39.0217 77.0276 39.0986 77.142 39.2097C77.1899 39.2499 77.24 39.2876 77.292 39.3224C77.4205 39.4008 77.5691 39.4402 77.7197 39.4358C77.8703 39.4313 78.0163 39.3832 78.1399 39.2973C78.2075 39.245 78.271 39.1876 78.3298 39.1256C78.4336 39.0068 78.5614 38.9112 78.7048 38.845C78.777 38.817 78.8537 38.8021 78.9312 38.801Z" fill="#6C63FF"/>
<path d="M78.3795 0H78.1744V19.6384H78.3795V0Z" fill="#3F3D56"/>
<path d="M140.263 34.0252C139.013 38.6357 134.731 41.4911 134.731 41.4911C134.731 41.4911 132.476 36.8714 133.726 32.2609C134.976 27.6503 139.258 24.7949 139.258 24.7949C139.258 24.7949 141.514 29.4147 140.263 34.0252Z" fill="#6C63FF"/>
<path d="M128.89 34.0252C130.14 38.6357 134.423 41.4911 134.423 41.4911C134.423 41.4911 136.678 36.8714 135.428 32.2609C134.177 27.6503 129.895 24.7949 129.895 24.7949C129.895 24.7949 127.64 29.4147 128.89 34.0252Z" fill="#6C63FF"/>
<path d="M130.727 33.0344C134.158 36.366 134.577 41.4874 134.577 41.4874C134.577 41.4874 129.434 41.2073 126.003 37.8757C122.573 34.544 122.154 29.4226 122.154 29.4226C122.154 29.4226 127.297 29.7028 130.727 33.0344Z" fill="#3F3D56"/>
<path d="M138.426 33.0344C134.996 36.366 134.577 41.4874 134.577 41.4874C134.577 41.4874 139.72 41.2073 143.15 37.8757C146.581 34.544 147 29.4226 147 29.4226C147 29.4226 141.857 29.7028 138.426 33.0344Z" fill="#3F3D56"/>
<path d="M18.1098 87.8894C16.8596 92.5 12.5774 95.3554 12.5774 95.3554C12.5774 95.3554 10.3222 90.7357 11.5724 86.1251C12.8226 81.5146 17.1048 78.6592 17.1048 78.6592C17.1048 78.6592 19.36 83.2789 18.1098 87.8894Z" fill="#6C63FF"/>
<path d="M6.73655 87.8894C7.98675 92.5 12.269 95.3554 12.269 95.3554C12.269 95.3554 14.5242 90.7357 13.274 86.1251C12.0238 81.5146 7.74159 78.6592 7.74159 78.6592C7.74159 78.6592 5.48635 83.2789 6.73655 87.8894Z" fill="#6C63FF"/>
<path d="M8.5736 86.8986C12.0042 90.2302 12.4232 95.3517 12.4232 95.3517C12.4232 95.3517 7.28015 95.0715 3.84959 91.7399C0.419017 88.4083 0 83.2869 0 83.2869C0 83.2869 5.14304 83.567 8.5736 86.8986Z" fill="#3F3D56"/>
<path d="M16.2728 86.8986C12.8422 90.2302 12.4232 95.3517 12.4232 95.3517C12.4232 95.3517 17.5662 95.0715 20.9968 91.7399C24.4274 88.4083 24.8464 83.2869 24.8464 83.2869C24.8464 83.2869 19.7034 83.567 16.2728 86.8986Z" fill="#3F3D56"/>
<path d="M99.9813 45.297C101.566 45.297 102.85 44.0156 102.85 42.435C102.85 40.8544 101.566 39.573 99.9813 39.573C98.397 39.573 97.1125 40.8544 97.1125 42.435C97.1125 44.0156 98.397 45.297 99.9813 45.297Z" fill="#2F2E41"/>
<path d="M96.9076 41.2084C96.9077 40.5026 97.1693 39.8216 97.6421 39.2965C98.1149 38.7713 98.7655 38.439 99.469 38.3634C99.0684 38.3197 98.663 38.3607 98.2793 38.4838C97.8957 38.6069 97.5423 38.8092 97.2423 39.0777C96.9422 39.3461 96.7022 39.6746 96.5379 40.0417C96.3736 40.4088 96.2887 40.8064 96.2887 41.2084C96.2887 41.6105 96.3736 42.0081 96.5379 42.3752C96.7022 42.7423 96.9422 43.0708 97.2423 43.3392C97.5423 43.6077 97.8957 43.81 98.2793 43.9331C98.663 44.0561 99.0684 44.0972 99.469 44.0535C98.7655 43.9779 98.1149 43.6456 97.6421 43.1204C97.1693 42.5953 96.9077 41.9143 96.9076 41.2084Z" fill="#2F2E41"/>
<path d="M97.1125 42.4349C97.1125 42.4349 96.667 44.4792 99.4511 45.2969L97.1125 42.4349Z" fill="#6C63FF"/>
<path d="M101.168 61.875C106.487 61.875 110.799 57.5733 110.799 52.2668C110.799 46.9604 106.487 42.6587 101.168 42.6587C95.8488 42.6587 91.5369 46.9604 91.5369 52.2668C91.5369 57.5733 95.8488 61.875 101.168 61.875Z" fill="#2F2E41"/>
<path d="M106.488 84.7729C106.364 84.8756 106.24 84.9768 106.115 85.0765C103.55 87.1501 100.772 88.9472 97.828 90.4376C97.6535 90.5254 97.479 90.6132 97.303 90.6995C97.0241 90.8364 96.7422 90.9703 96.4603 91.1012L91.5234 89.46L91.5801 88.28V88.2756L91.7949 83.776L91.868 82.2374L106.488 84.7729Z" fill="#A0616A"/>
<path d="M97.3029 90.6995C97.024 90.8364 96.7421 90.9703 96.4602 91.1012C94.5317 92.0007 92.5427 92.7649 90.5076 93.3882C90.4973 93.3585 90.4913 93.3274 90.4897 93.2959L91.5234 88.2562L91.58 88.28L97.3029 90.6995Z" fill="#2F2E41"/>
<path d="M98.7638 62.4607C102.286 62.4607 105.142 59.612 105.142 56.0979C105.142 52.5838 102.286 49.7351 98.7638 49.7351C95.2414 49.7351 92.3859 52.5838 92.3859 56.0979C92.3859 59.612 95.2414 62.4607 98.7638 62.4607Z" fill="#A0616A"/>
<path d="M103.935 56.4419C103.935 56.4419 104.969 61.6009 106.865 62.8047L96.3505 75.1863L92.3859 71.403L95.3162 66.244C95.3162 66.244 98.5914 64.3524 97.5571 61.7729L103.935 56.4419Z" fill="#A0616A"/>
<path d="M116.413 73.5283C114.545 76.4737 112.358 79.206 109.893 81.6764C109.787 79.3701 109.557 77.4685 109.107 76.906C109.106 76.9059 109.104 76.9054 109.104 76.9045L103.59 75.1859C103.59 75.1859 104.796 63.8358 107.727 63.3209C107.727 63.3209 108.152 63.4072 108.813 63.6066C110.943 64.2464 115.516 66.0498 116.173 69.8546C116.36 71.0698 116.441 72.2991 116.413 73.5283Z" fill="#A0616A"/>
<path d="M95.3162 66.2439C95.3162 66.2439 90.1449 66.072 86.8698 70.1992C83.5947 74.3264 75.6654 77.4218 75.6654 77.4218L55.8421 85.1603C55.8421 85.1603 52.2223 78.7975 49.9814 81.0331C47.7405 83.2687 54.1184 88.9436 57.0488 88.2557C59.9792 87.5679 77.7339 82.2369 77.7339 82.2369L91.8687 75.8741L95.3162 66.2439Z" fill="#A0616A"/>
<path d="M109.107 76.906L108.388 83.1197C107.77 83.6881 107.137 84.2392 106.488 84.7728C106.364 84.8755 106.24 84.9767 106.115 85.0764C101.138 83.5542 93.3386 83.7238 91.7949 83.7759C91.6189 83.7804 91.5235 83.7848 91.5235 83.7848L91.3519 80.1736C89.6979 79.6245 89.155 78.4237 89.14 77.1024C89.1147 74.7068 90.8344 71.9183 90.8344 71.9183C91.1431 71.6103 93.4505 67.2461 93.9278 66.3415C93.9829 66.2358 94.0143 66.1778 94.0143 66.1778L96.083 65.663C96.083 65.663 96.077 65.6793 96.0651 65.7091C95.8801 66.2254 94.2723 70.8961 97.0405 71.0583C99.764 71.219 105.688 63.5887 106.504 62.5189C106.565 62.4385 106.598 62.3954 106.598 62.3954L108.84 63.5992C108.831 63.6021 108.822 63.6036 108.813 63.6066C107.444 63.986 106.176 67.2759 106.176 67.2759C102.601 73.5611 108.947 76.8257 109.104 76.9045C109.105 76.9054 109.106 76.9059 109.107 76.906Z" fill="#D0CDE1"/>
<path d="M99.1102 48.6293C95.7151 48.6293 92.9628 50.231 92.9628 52.2068C92.9628 53.0908 93.516 53.8988 94.4292 54.523L95.6127 53.6675L95.2908 55.0077C95.4244 55.0694 95.5607 55.1292 95.7029 55.1844L97.4709 53.1267V55.6546C98.013 55.7413 98.5612 55.7846 99.1102 55.7843C102.505 55.7843 105.258 54.1826 105.258 52.2068C105.258 50.231 102.505 48.6293 99.1102 48.6293Z" fill="#2F2E41"/>
<path d="M111.703 49.7682C113.287 49.7682 114.572 48.4868 114.572 46.9062C114.572 45.3256 113.287 44.0442 111.703 44.0442C110.119 44.0442 108.834 45.3256 108.834 46.9062C108.834 48.4868 110.119 49.7682 111.703 49.7682Z" fill="#2F2E41"/>
<path d="M108.629 45.6795C108.629 44.9736 108.891 44.2927 109.364 43.7675C109.836 43.2424 110.487 42.91 111.191 42.8344C111.088 42.8234 110.986 42.8177 110.883 42.8175C110.493 42.8169 110.107 42.8957 109.749 43.0491C109.39 43.2024 109.067 43.4271 108.798 43.7093C108.53 43.9916 108.322 44.3255 108.187 44.6906C108.052 45.0558 107.993 45.4445 108.014 45.8331C108.035 46.2216 108.135 46.6019 108.309 46.9505C108.482 47.2991 108.725 47.6089 109.022 47.8608C109.319 48.1127 109.665 48.3015 110.038 48.4157C110.411 48.5298 110.803 48.5669 111.191 48.5246C110.487 48.449 109.836 48.1167 109.364 47.5915C108.891 47.0663 108.629 46.3854 108.629 45.6795Z" fill="#2F2E41"/>
<path d="M108.834 46.9061C108.834 46.9061 108.389 48.9504 111.173 49.7681L108.834 46.9061Z" fill="#6C63FF"/>
<path d="M105.4 56.6998C105.675 56.6998 105.898 56.1993 105.898 55.582C105.898 54.9647 105.675 54.4642 105.4 54.4642C105.125 54.4642 104.902 54.9647 104.902 55.582C104.902 56.1993 105.125 56.6998 105.4 56.6998Z" fill="#A0616A"/>
<path d="M50.4397 59.9063L42.8812 61.7332L42.8566 61.7391L42.035 62.4811L41.7985 62.6945L41.2915 62.6028L40.394 62.441L41.0195 60.3352L41.1367 56.3187L40.7068 53.862L43.0911 52.2241C43.0911 52.2241 47.7426 51.9512 50.4397 59.9063Z" fill="#D0CDE1"/>
<path opacity="0.1" d="M42.8812 61.7332C42.7788 61.9512 42.9934 61.8073 42.8761 62.0315L41.7817 62.3825L41.2915 62.6028L40.394 62.441L41.0194 60.3352L41.1367 56.3187L40.7067 53.8619L43.0911 52.2241C43.0911 52.2241 45.6502 55.8398 42.8812 61.7332Z" fill="black"/>
<path d="M59.3518 54.135C59.3518 54.135 49.4234 58.7365 45.3973 59.4384C41.3712 60.1403 41.723 64.1569 41.723 64.1569L64.2769 60.6473C64.2769 60.6473 63.4951 57.0207 59.3518 54.135Z" fill="#D0CDE1"/>
<path d="M40.1985 53.355C40.1985 53.355 41.9184 57.5275 40.0031 62.7139L42.2311 63.7278L43.091 62.7139L43.1106 62.6164L40.7457 62.402C40.7457 62.402 42.7001 57.1766 41.0975 53.55C41.0975 53.55 40.7457 52.7701 40.1985 53.355Z" fill="#6C63FF"/>
<path d="M72.9935 84.2784C64.1987 82.3287 56.0097 86.3647 56.0097 86.3647L55.9874 86.3448L52.7263 83.4401L39.9835 62.6944L43.091 62.7139C51.7295 57.5665 63.886 58.2684 63.886 58.2684C69.1238 64.1958 72.9935 84.2784 72.9935 84.2784Z" fill="#3F3D56"/>
<path opacity="0.1" d="M55.9874 86.3448L52.7263 83.4401L39.9835 62.6945L43.091 62.714C43.091 62.714 55.4765 79.0332 55.9874 86.3448Z" fill="black"/>
<path d="M57.4186 70.1581C60.081 69.3434 61.8185 67.3143 61.2995 65.6259C60.7804 63.9375 58.2013 63.2293 55.5389 64.0439C52.8764 64.8586 51.1389 66.8877 51.658 68.5761C52.1771 70.2645 54.7562 70.9727 57.4186 70.1581Z" fill="#D0CDE1"/>
<path d="M4.14537 44.0664C5.71046 44.0664 6.97921 42.8006 6.97921 41.2392C6.97921 39.6779 5.71046 38.4121 4.14537 38.4121C2.58028 38.4121 1.31152 39.6779 1.31152 41.2392C1.31152 42.8006 2.58028 44.0664 4.14537 44.0664Z" fill="#3F3D56"/>
<path d="M142.556 98.3769C144.121 98.3769 145.39 97.1112 145.39 95.5498C145.39 93.9884 144.121 92.7227 142.556 92.7227C140.991 92.7227 139.722 93.9884 139.722 95.5498C139.722 97.1112 140.991 98.3769 142.556 98.3769Z" fill="#3F3D56"/>
<path d="M16.5248 43.7687C17.7604 43.7687 18.7621 42.7694 18.7621 41.5368C18.7621 40.3041 17.7604 39.3048 16.5248 39.3048C15.2892 39.3048 14.2876 40.3041 14.2876 41.5368C14.2876 42.7694 15.2892 43.7687 16.5248 43.7687Z" fill="#6C63FF"/>
<path d="M142.556 43.7687C143.792 43.7687 144.794 42.7694 144.794 41.5368C144.794 40.3041 143.792 39.3048 142.556 39.3048C141.321 39.3048 140.319 40.3041 140.319 41.5368C140.319 42.7694 141.321 43.7687 142.556 43.7687Z" fill="#6C63FF"/>
<path d="M4.14533 97.4841C5.38092 97.4841 6.38257 96.4849 6.38257 95.2522C6.38257 94.0195 5.38092 93.0203 4.14533 93.0203C2.90973 93.0203 1.90808 94.0195 1.90808 95.2522C1.90808 96.4849 2.90973 97.4841 4.14533 97.4841Z" fill="#6C63FF"/>
</g>
<defs>
<clipPath id="clip0_7_150">
<rect width="147" height="98.3769" fill="white"/>
</clipPath>
</defs>
</svg>
