<svg width="97" height="97" viewBox="0 0 97 97" fill="none" xmlns="http://www.w3.org/2000/svg">
<path d="M28.9407 78.9678L30.0121 77.279C29.5044 76.9568 28.8787 76.8802 28.3082 77.0704L28.9407 78.9678ZM12.0839 84.5867L10.1865 83.9542C9.94694 84.6729 10.134 85.4652 10.6696 86.0009C11.2053 86.5366 11.9976 86.7236 12.7163 86.484L12.0839 84.5867ZM17.7028 67.7299L19.6002 68.3623C19.7903 67.7919 19.7137 67.1662 19.3916 66.6584L17.7028 67.7299ZM48.3353 86.5867C69.461 86.5867 86.5867 69.4609 86.5867 48.3352H82.5867C82.5867 67.2518 67.2519 82.5867 48.3353 82.5867V86.5867ZM27.8692 80.6565C33.7886 84.4122 40.8111 86.5867 48.3353 86.5867V82.5867C41.5921 82.5867 35.3097 80.6401 30.0121 77.279L27.8692 80.6565ZM28.3082 77.0704L11.4514 82.6893L12.7163 86.484L29.5731 80.8651L28.3082 77.0704ZM13.9812 85.2191L19.6002 68.3623L15.8054 67.0974L10.1865 83.9542L13.9812 85.2191ZM10.0839 48.3352C10.0839 55.8595 12.2584 62.882 16.014 68.8014L19.3916 66.6584C16.0304 61.3609 14.0839 55.0784 14.0839 48.3352H10.0839ZM48.3353 10.0838C27.2096 10.0838 10.0839 27.2096 10.0839 48.3352H14.0839C14.0839 29.4187 29.4188 14.0838 48.3353 14.0838V10.0838ZM86.5867 48.3352C86.5867 27.2096 69.461 10.0838 48.3353 10.0838V14.0838C67.2519 14.0838 82.5867 29.4187 82.5867 48.3352H86.5867Z" fill="white"/>
<path d="M64.447 48.3353H64.4551V48.3433H64.447V48.3353Z" stroke="white" stroke-width="4" stroke-linecap="round" stroke-linejoin="round"/>
<path d="M48.3352 48.3353H48.3433V48.3433H48.3352V48.3353Z" stroke="white" stroke-width="4" stroke-linecap="round" stroke-linejoin="round"/>
<path d="M32.2235 48.3353H32.2316V48.3433H32.2235V48.3353Z" stroke="white" stroke-width="4" stroke-linecap="round" stroke-linejoin="round"/>
</svg>
