<svg width="97" height="98" viewBox="0 0 97 98" fill="none" xmlns="http://www.w3.org/2000/svg">
<path d="M12.0955 69.0183L33.1615 44.4412C34.7838 42.5486 37.7183 42.5689 39.3141 44.4839L53.5791 61.6019C55.0954 63.4215 57.8468 63.5463 59.5216 61.8715L65.3044 56.0887C67.002 54.3911 69.7982 54.546 71.2979 56.4206L84.5983 73.0462" stroke="white" stroke-width="4" stroke-linecap="round" stroke-linejoin="round"/>
<path d="M80.5704 12.6271H16.1234C13.8988 12.6271 12.0955 14.4305 12.0955 16.6551V81.1021C12.0955 83.3266 13.8988 85.13 16.1234 85.13H80.5704C82.795 85.13 84.5983 83.3266 84.5983 81.1021V16.6551C84.5983 14.4305 82.795 12.6271 80.5704 12.6271Z" stroke="white" stroke-width="4" stroke-linecap="round" stroke-linejoin="round"/>
<path d="M56.4027 32.7668C56.4027 30.5423 58.2061 28.7389 60.4307 28.7389C62.6552 28.7389 64.4586 30.5423 64.4586 32.7668C64.4586 34.9914 62.6552 36.7948 60.4307 36.7948C58.2061 36.7948 56.4027 34.9914 56.4027 32.7668Z" stroke="white" stroke-width="4" stroke-linecap="round" stroke-linejoin="round"/>
</svg>
