<svg width="147" height="146" viewBox="0 0 147 146" fill="none" xmlns="http://www.w3.org/2000/svg">
<g clip-path="url(#clip0_7_206)">
<path d="M145.741 72.971C145.751 81.2756 144.342 89.5207 141.575 97.3496C141.573 97.3548 141.571 97.3582 141.57 97.3634C141.558 97.3998 141.545 97.4328 141.532 97.4692V97.4709C140.941 99.1314 140.293 100.764 139.586 102.369C137.803 106.417 135.656 110.293 133.171 113.951C132.569 114.842 131.945 115.718 131.3 116.58C130.591 117.534 129.858 118.468 129.104 119.383C128.408 120.227 127.694 121.055 126.961 121.867C126.09 122.834 125.194 123.776 124.271 124.694C122.1 126.859 119.794 128.885 117.368 130.76C116.943 131.091 116.512 131.417 116.077 131.736C115.065 132.485 114.032 133.207 112.979 133.903C110.663 135.436 108.26 136.834 105.783 138.09C105.356 138.309 104.925 138.524 104.492 138.732C102.818 139.541 101.111 140.286 99.3688 140.966C98.872 141.162 98.3735 141.351 97.8698 141.533C97.785 141.565 97.7002 141.597 97.6137 141.626C91.6409 143.785 85.4105 145.147 79.0827 145.679C78.6431 145.718 78.2029 145.752 77.7621 145.779C77.2947 145.812 76.8268 145.839 76.3583 145.859C75.9879 145.878 75.6192 145.892 75.2471 145.902C75.1709 145.906 75.093 145.909 75.0169 145.909C74.5167 145.925 74.0147 145.934 73.511 145.939C73.2981 145.94 73.0852 145.942 72.8706 145.942C72.7702 145.942 72.6698 145.942 72.5694 145.94C71.1172 145.935 69.6759 145.888 68.2456 145.798C68.2162 145.796 68.1868 145.793 68.1574 145.793C67.645 145.758 67.1344 145.722 66.6255 145.677C64.8133 145.524 63.0207 145.305 61.2476 145.018C60.8392 144.954 60.4318 144.885 60.0256 144.81C58.2619 144.498 56.5212 144.122 54.8035 143.682C54.2929 143.552 53.7852 143.416 53.2803 143.274C50.3666 142.463 47.5067 141.468 44.7176 140.297C43.1165 139.624 41.5455 138.897 40.0044 138.116C39.3103 137.764 38.6232 137.402 37.9429 137.028C37.7577 136.927 37.5742 136.825 37.3908 136.723C36.051 135.974 34.739 135.185 33.4547 134.355C32.4023 133.677 31.3696 132.972 30.3564 132.24C30.2318 132.154 30.1089 132.064 29.986 131.974C29.2088 131.407 28.4444 130.826 27.6926 130.23C26.0569 128.932 24.4795 127.568 22.9603 126.138C21.9097 125.15 20.8896 124.13 19.9001 123.08C14.1346 116.974 9.46377 109.919 6.09278 102.224C5.37619 100.586 4.71845 98.9176 4.11957 97.2196C4.11762 97.2158 4.11645 97.2117 4.11611 97.2074C1.38302 89.4204 -0.00881225 81.225 4.19799e-05 72.971C4.19799e-05 42.3336 18.8564 16.1056 45.5813 5.28997C55.1056 1.45186 65.3307 -0.333206 75.5901 0.0511547C85.8495 0.435516 95.9128 2.98067 105.124 7.5207C129.19 19.4335 145.741 44.2679 145.741 72.971Z" fill="#F2F2F2"/>
<path d="M105.124 7.5207V99.7328H45.5813V5.28997C55.1056 1.45186 65.3307 -0.333206 75.59 0.0511547C85.8494 0.435516 95.9127 2.98067 105.124 7.5207Z" fill="white"/>
<path d="M59.9099 49.5715C61.5252 46.8963 63.4392 44.0401 66.4367 43.1665C69.908 42.1549 73.4739 44.1645 76.4986 46.1475C85.5442 52.0781 94.2552 58.5052 102.592 65.3993L102.583 65.5031C96.0924 65.0549 89.602 64.6067 83.1116 64.1585C78.4222 63.8347 73.5718 63.4662 69.4278 61.2448C67.8552 60.4018 66.3223 59.2758 64.5404 59.1974C62.3265 59.0999 60.3962 60.6482 58.8791 62.2659C49.9056 71.8347 47.3088 86.4677 37.2413 94.8746C43.5896 79.1972 51.1695 64.0486 59.9099 49.5715Z" fill="#F2F2F2"/>
<path d="M109.479 9.87267C109.329 9.77215 109.176 9.67681 109.026 9.57975C104.673 6.79191 100.007 4.52709 95.1249 2.8321L93.9929 18.4697H86.8167V0.549371C86.3649 0.455774 85.9097 0.367377 85.4545 0.28418V18.4697H76.9263C72.2315 18.4697 67.729 16.6022 64.4093 13.2778C61.0895 9.95354 59.2245 5.4448 59.2245 0.743519V0.743502C58.7676 0.842299 58.3141 0.948028 57.8606 1.06069V18.4697H50.9145L49.8362 3.55835C44.8191 5.48511 40.0561 8.01889 35.6532 11.1033C35.5771 11.1553 35.5009 11.209 35.4265 11.261C35.044 11.5297 34.6666 11.8036 34.291 12.0809V99.1244H54.7623L54.4005 94.1065L52.41 39.1703H92.4957L90.5052 94.1065L90.1434 99.1244H110.388V10.4759C110.087 10.2713 109.784 10.0703 109.479 9.87267ZM57.8606 34.6204H52.0811L51.0132 19.8356H57.8606V34.6204ZM85.4545 34.6204H75.7476V34.3275C75.7476 34.1867 75.7199 34.0472 75.666 33.9172C75.6122 33.7871 75.5332 33.6689 75.4337 33.5694C75.3342 33.47 75.2161 33.3911 75.0861 33.3374C74.9561 33.2836 74.8168 33.2561 74.6762 33.2563H70.4563C70.3158 33.2563 70.1767 33.2839 70.0469 33.3378C69.917 33.3916 69.7991 33.4705 69.6998 33.5699C69.6004 33.6694 69.5216 33.7875 69.4679 33.9175C69.4142 34.0475 69.3865 34.1868 69.3866 34.3275V34.6204H59.2245V19.8356H85.4545V34.6204ZM86.8167 34.6204V19.8356H93.8943L92.8263 34.6204H86.8167Z" fill="#3F3D56"/>
<path d="M141.575 97.3492C141.573 97.3544 141.572 97.3578 141.57 97.363C141.558 97.3994 141.546 97.4323 141.532 97.4687V97.4705C140.941 99.131 140.293 100.764 139.586 102.369L6.09289 102.223C5.3763 100.585 4.71856 98.9172 4.11967 97.2192C4.11773 97.2154 4.11655 97.2113 4.11621 97.207L141.575 97.3492Z" fill="#3F3D56"/>
<path d="M91.6872 97.9194H68.3202V101.039H91.6872V97.9194Z" fill="white"/>
<path d="M37.389 128.472C37.4721 127.739 37.5869 127.011 37.7334 126.287C38.5344 122.361 40.2535 118.682 42.7496 115.551C44.1775 115.631 45.429 115.412 45.5484 112.642C45.5709 112.15 45.9361 111.722 46.0157 111.237C45.8807 111.256 45.7405 111.266 45.6055 111.275C45.5622 111.277 45.5172 111.28 45.4757 111.282H45.4601C45.3102 111.289 45.1615 111.252 45.0319 111.176C44.9024 111.101 44.7975 110.989 44.7299 110.855C44.6624 110.721 44.6351 110.57 44.6513 110.42C44.6676 110.271 44.7266 110.129 44.8214 110.013C44.8803 109.942 44.9391 109.869 44.998 109.796C45.0863 109.684 45.178 109.574 45.268 109.464C45.2784 109.451 45.287 109.441 45.2974 109.429C45.3995 109.302 45.5017 109.176 45.6055 109.049C45.4179 108.758 45.1656 108.513 44.8682 108.335C43.8383 107.73 42.4172 108.15 41.6729 109.082C40.9269 110.015 40.785 111.325 41.0446 112.49C41.2662 113.488 41.7491 114.403 42.2909 115.273C42.2355 115.345 42.1766 115.414 42.1212 115.487C41.1004 116.802 40.2105 118.213 39.4643 119.702C39.6755 118.05 37.0947 112.088 36.096 110.824C34.8965 109.308 32.4386 109.97 32.2275 111.894C32.2257 111.911 32.2223 111.93 32.2205 111.949C32.3694 112.032 32.5148 112.121 32.6567 112.216C32.835 112.335 32.9732 112.506 33.0531 112.705C33.133 112.904 33.1509 113.123 33.1045 113.333C33.0581 113.542 32.9495 113.733 32.793 113.88C32.6365 114.027 32.4394 114.123 32.2275 114.155L32.205 114.159C30.2214 116.996 36.5824 124.382 38.1765 122.725C37.7757 123.853 37.4559 125.008 37.2194 126.181C37.0071 127.216 36.8591 128.263 36.7762 129.316C36.6753 130.643 36.6816 131.976 36.7953 133.301C36.7921 133.286 36.7898 133.27 36.7884 133.254C36.4335 130.367 30.3633 126.074 28.5909 126.431C27.5696 126.637 26.564 126.59 26.7198 127.621C26.7215 127.639 26.725 127.654 26.7267 127.672C27.0019 127.783 27.2696 127.912 27.5281 128.058C27.677 128.141 27.8223 128.231 27.9643 128.325C28.1312 128.437 28.2632 128.594 28.345 128.777C28.4269 128.961 28.4552 129.164 28.4268 129.363C28.3984 129.562 28.3144 129.749 28.1845 129.903C28.0546 130.056 27.8841 130.169 27.6925 130.23C28.4455 130.824 29.21 131.406 29.986 131.974C30.1089 132.064 30.2318 132.154 30.3564 132.241C31.369 132.972 32.4017 133.677 33.4547 134.355C34.739 135.184 36.051 135.973 37.3907 136.723C37.5742 136.825 37.7577 136.927 37.9429 137.028C37.4772 135.109 37.2413 133.142 37.2401 131.168C37.2397 130.267 37.2894 129.367 37.389 128.472ZM38.3358 122.279L38.3392 122.274C38.3392 122.277 38.3379 122.28 38.3358 122.283V122.279ZM36.9563 134.743L36.9026 134.624C36.9043 134.535 36.9043 134.449 36.9026 134.359C36.9026 134.334 36.8974 134.31 36.8974 134.286C36.9182 134.44 36.9355 134.594 36.958 134.749L36.9563 134.743ZM44.9062 134.979C44.9253 134.899 44.9409 134.844 44.9599 134.764C44.953 134.747 44.9461 134.73 44.9391 134.714C44.3627 133.339 41.3198 136.111 40.0044 138.116C41.5448 138.896 43.1159 139.623 44.7176 140.297C44.8249 140.162 44.9357 140.028 45.0447 139.893C45.0551 139.881 45.0637 139.87 45.0724 139.858C45.3078 139.567 45.5449 139.279 45.7786 138.988C45.7803 138.931 45.7803 138.874 45.7803 138.818C45.778 137.983 45.6758 137.152 45.4757 136.341C45.3149 136.349 45.1558 136.307 45.0197 136.22C44.8837 136.134 44.7775 136.008 44.7153 135.86C44.6532 135.711 44.6381 135.547 44.6723 135.389C44.7065 135.232 44.7881 135.089 44.9062 134.979V134.979Z" fill="white"/>
<path d="M82.3484 98.9052C82.764 99.1923 83.2374 99.3846 83.7353 99.4686C84.2331 99.5526 84.7433 99.5263 85.2299 99.3915C85.7165 99.2568 86.1677 99.0168 86.5517 98.6885C86.9356 98.3602 87.243 97.9516 87.4522 97.4915L99.6714 98.636L96.6716 93.0004L85.5279 92.7775C84.7327 92.4768 83.855 92.4787 83.0611 92.7827C82.2671 93.0868 81.6121 93.6719 81.2202 94.4272C80.8283 95.1825 80.7267 96.0555 80.9346 96.8809C81.1425 97.7062 81.6456 98.4265 82.3484 98.9052V98.9052Z" fill="#FFB6B6"/>
<path d="M94.7386 98.5196L111.648 100.418L111.706 100.343C111.818 100.2 122.882 86.0183 124.741 82.6423C125.884 80.6139 126.301 78.2549 125.921 75.9568L125.908 75.9006L125.864 75.8634C124.963 75.1069 123.831 74.6806 122.655 74.6548C121.479 74.629 120.33 75.0052 119.396 75.7214C114.907 79.2031 111.287 83.6821 108.823 88.8047L107.424 91.7203L94.7386 92.9731V98.5196Z" fill="#6C63FF"/>
<path d="M81.0201 138.184L77.7625 145.78C77.2952 145.812 76.8273 145.839 76.3588 145.859C75.9884 145.878 75.6197 145.892 75.2475 145.903L75.1212 145.942L75.0173 145.91C74.5171 145.925 74.0151 145.935 73.5114 145.939C73.2985 145.941 73.0856 145.942 72.871 145.942C72.7706 145.942 72.6702 145.942 72.5698 145.941L72.7862 145.199L73.0406 144.32L74.0515 140.84L75.5106 135.815L77.6812 136.747L81.0201 138.184Z" fill="#FFB6B6"/>
<path d="M104.493 138.732C102.819 139.541 101.111 140.286 99.3692 140.966L97.666 138.098L103.156 135.683L104.493 138.732Z" fill="#FFB6B6"/>
<path d="M116.077 125.694V131.737C115.065 132.485 114.032 133.208 112.979 133.903V125.694H116.077Z" fill="#CACACA"/>
<path d="M126.961 121.867C126.091 122.834 125.194 123.777 124.272 124.694C122.1 126.86 119.795 128.886 117.369 130.761H103.556C103.19 130.761 102.827 130.682 102.493 130.531C102.159 130.379 101.861 130.158 101.619 129.882L101.618 129.877C101.33 129.551 101.129 129.157 101.036 128.733L101.034 128.729C100.995 128.547 100.976 128.361 100.975 128.175V124.453C100.976 123.768 101.248 123.111 101.732 122.626C102.216 122.141 102.872 121.868 103.556 121.867H126.961Z" fill="#3F3D56"/>
<path d="M132.652 107.342L131.155 113.766C131.302 114.696 131.35 115.64 131.301 116.581C130.591 117.534 129.859 118.468 129.104 119.383C128.408 120.227 127.694 121.055 126.961 121.867C126.091 122.834 125.194 123.777 124.271 124.694C121.869 125.45 119.037 125.758 116.077 125.779C115.056 125.788 114.019 125.76 112.979 125.705C108.761 125.483 104.494 124.805 101 124.101C100.075 123.918 99.2064 123.73 98.4067 123.548C96.8922 123.207 95.6252 122.888 94.7078 122.645C93.6745 122.375 93.0859 122.2 93.0859 122.2L89.1551 128.792L85.586 134.775L80.987 140.652C80.5474 140.692 80.1072 140.726 79.6664 140.753C79.199 140.786 78.7311 140.812 78.2626 140.833C77.8922 140.852 77.5235 140.866 77.1514 140.876L77.025 140.916L76.9212 140.883L75.2526 140.351L74.69 140.172L72.6666 139.528C72.6666 139.528 73.1184 138.103 73.9094 135.726C74.2002 134.855 76.26 128.409 78.4149 122.781C79.0536 121.11 79.7148 119.415 80.395 117.728C80.9524 116.343 81.5201 114.964 82.0948 113.603C83.0935 111.244 87.9192 109.972 93.6017 109.304C93.8908 109.271 94.1816 109.239 94.4741 109.207C97.3699 108.902 100.442 108.745 103.315 108.672C104.754 108.635 106.142 108.621 107.433 108.62C107.85 108.62 108.256 108.621 108.65 108.623H108.652C109.716 108.628 110.696 108.644 111.558 108.661C111.726 108.665 111.889 108.67 112.048 108.673H112.05C112.157 108.675 112.262 108.679 112.366 108.68C114.251 108.729 115.407 108.788 115.407 108.788L115.856 105.266L115.948 104.555L116.034 103.879V103.877L116.044 103.793L116.115 103.791L117.362 103.767L127.837 103.562L132.299 103.373L132.652 107.342Z" fill="#2F2E41"/>
<path d="M104.226 135.837C103.799 136.056 103.368 136.271 102.935 136.479C101.261 137.288 99.5533 138.033 97.8114 138.713C97.3147 138.909 96.8162 139.098 96.3125 139.28C96.2571 139.202 96.2 139.124 96.1429 139.046C93.7404 135.744 92.2449 133.64 89.1552 128.792C87.8623 126.764 86.5624 124.649 85.3005 122.489L94.4362 118.219L95.4609 117.74L98.4069 123.548L101.034 128.729L101.619 129.882L104.226 135.837Z" fill="#2F2E41"/>
<path d="M119.045 65.8739C123.693 65.8739 127.461 62.1005 127.461 57.4457C127.461 52.791 123.693 49.0176 119.045 49.0176C114.396 49.0176 110.628 52.791 110.628 57.4457C110.628 62.1005 114.396 65.8739 119.045 65.8739Z" fill="#FFB6B6"/>
<path d="M134.068 83.6432C133.999 76.6824 134.203 78.6982 133.653 76.3011C132.175 69.8567 126.039 68.6816 124.969 68.536C124.855 68.2322 124.68 67.9552 124.455 67.7221C124.229 67.4891 123.958 67.305 123.659 67.1812C123.359 67.0575 123.037 66.9968 122.713 67.003C122.389 67.0091 122.07 67.082 121.776 67.2169L119.728 68.2804C117.742 69.1904 118.947 70.505 118.262 72.5797L117.542 74.781L111.641 91.1137L112.836 97.3275L112.837 97.3309L113.642 101.517L116.029 104.239L115.984 103.805L115.93 103.888L115.929 103.89L115.79 104.096C115.982 104.202 116.173 104.306 116.36 104.41C116.844 104.677 117.317 104.938 117.777 105.195C117.888 105.257 117.997 105.318 118.106 105.38H118.108C118.177 105.418 118.246 105.457 118.314 105.495C120.041 106.462 113.647 108.223 115.068 109.05C115.266 109.164 115.461 109.278 115.653 109.391C122.196 113.223 127.417 117.997 129.104 119.383C129.859 118.468 130.591 117.534 131.301 116.581C131.945 115.719 132.568 114.843 133.172 113.951C133.277 113.255 133.348 112.558 133.418 111.875C133.501 111.053 133.068 103.442 133.213 102.605C133.277 102.234 133.032 101.883 132.794 101.543C132.575 101.226 132.367 100.927 132.41 100.647C132.455 100.357 132.774 100.042 133.084 99.735C133.421 99.3987 133.771 99.0521 133.821 98.6864C133.959 97.6672 133.39 96.6446 133.497 95.6185C133.674 93.9493 133.809 92.275 133.904 90.5954C134.037 88.2763 134.092 85.9589 134.068 83.6432Z" fill="#6C63FF"/>
<path d="M86.5961 100.714C86.9436 100.347 87.3672 100.061 87.837 99.8763C88.3068 99.6912 88.8114 99.6115 89.3153 99.6428C89.8192 99.6741 90.3102 99.8157 90.7535 100.058C91.1969 100.299 91.5819 100.636 91.8814 101.043L103.602 97.3973L101.828 103.532L90.9702 106.053C90.2541 106.511 89.3948 106.691 88.5553 106.558C87.7158 106.424 86.9543 105.987 86.4152 105.329C85.876 104.671 85.5966 103.838 85.63 102.987C85.6633 102.137 86.0071 101.328 86.5961 100.714L86.5961 100.714Z" fill="#FFB6B6"/>
<path d="M100.805 104.108L122.559 99.6167L116.913 101.017C116.977 100.847 123.323 84.0097 124.094 80.2325C124.582 77.9552 124.278 75.579 123.233 73.4984L123.204 73.4485L123.151 73.4261C122.065 72.9727 120.858 72.9032 119.728 73.2292C118.598 73.5551 117.612 74.257 116.934 75.219C113.683 79.8814 111.559 85.2365 110.73 90.8617L110.262 94.0619L102.592 96.3595L100.805 104.108Z" fill="#6C63FF"/>
<path d="M60.2632 97.2491C60.3394 97.4714 60.4841 97.6638 60.6764 97.7987C60.8687 97.9336 61.0987 98.004 61.3334 97.9998L65.9188 97.8816C66.1553 97.877 66.3839 97.7959 66.5705 97.6504C66.7571 97.5049 66.8917 97.3028 66.9541 97.0744L67.603 90.1261C67.8332 90.2306 68.0838 90.2822 68.3365 90.2771C68.7799 90.2659 69.2007 90.0789 69.5063 89.757C69.812 89.4352 69.9774 89.005 69.9663 88.561C69.9552 88.117 69.7684 87.6956 69.447 87.3896C69.1256 87.0835 68.696 86.9178 68.2526 86.929C68.1516 86.9286 68.0508 86.9391 67.9521 86.9603C67.8446 86.8439 67.7141 86.7513 67.5688 86.6886C67.4235 86.6258 67.2667 86.5942 67.1084 86.5958L60.0549 86.7781C59.9964 86.7803 59.9382 86.7875 59.881 86.7998C59.7263 86.8287 59.5796 86.8904 59.4507 86.9808C59.3218 87.0712 59.2138 87.1882 59.1339 87.3239C59.054 87.4597 59.004 87.611 58.9874 87.7676C58.9707 87.9243 58.9878 88.0828 59.0375 88.2323L60.2632 97.2491ZM67.736 89.6544L68.1978 87.9986C68.2503 87.8073 68.2515 87.6056 68.2013 87.4137C68.2237 87.4136 68.2435 87.403 68.2659 87.403C68.5825 87.3964 68.8887 87.5158 69.1175 87.7351C69.3463 87.9543 69.479 88.2554 69.4864 88.5724C69.4938 88.8895 69.3754 89.1965 69.1571 89.4262C68.9388 89.6559 68.6384 89.7896 68.3219 89.7979C68.1172 89.8043 67.9147 89.7547 67.736 89.6544Z" fill="#2F2E41"/>
<path d="M59.8809 86.7998C60.0311 87.6602 61.7206 88.2651 63.7521 88.1599C65.6203 88.0737 67.1477 87.4169 67.4276 86.6383C67.324 86.6077 67.2163 86.5933 67.1083 86.5957L60.0548 86.7781C59.9963 86.7803 59.9381 86.7875 59.8809 86.7998Z" fill="#3F3D56"/>
<path d="M29.2075 80.5098V95.3647C29.2077 95.554 29.2828 95.7355 29.4165 95.8694C29.5502 96.0032 29.7314 96.0785 29.9205 96.0786H51.9036C52.0926 96.0785 52.2739 96.0032 52.4076 95.8694C52.5412 95.7355 52.6164 95.554 52.6165 95.3647V80.5098C52.6161 80.3206 52.5408 80.1394 52.4072 80.0057C52.2735 79.8721 52.0925 79.7969 51.9036 79.7966H29.9205C29.7316 79.7969 29.5505 79.8721 29.4169 80.0057C29.2833 80.1394 29.208 80.3206 29.2075 80.5098Z" fill="#3F3D56"/>
<path d="M29.7233 80.6946V95.1815C29.7234 95.2826 29.7636 95.3795 29.8351 95.4511C29.9065 95.5226 30.0033 95.5628 30.1043 95.563H51.7206C51.8216 95.5628 51.9184 95.5226 51.9899 95.4511C52.0613 95.3795 52.1015 95.2826 52.1017 95.1815V80.6946C52.1017 80.5933 52.0615 80.4962 51.9901 80.4245C51.9187 80.3529 51.8217 80.3125 51.7206 80.3123H30.1043C30.0032 80.3125 29.9063 80.3529 29.8348 80.4245C29.7634 80.4962 29.7233 80.5933 29.7233 80.6946Z" fill="#6C63FF"/>
<path d="M28.7478 98.2618C28.788 98.3123 28.8392 98.3531 28.8975 98.381C28.9558 98.4089 29.0196 98.4232 29.0842 98.4229H52.6229C52.6873 98.4228 52.7508 98.4084 52.8089 98.3806C52.867 98.3529 52.9182 98.3125 52.9588 98.2624C52.9993 98.2124 53.0282 98.1539 53.0433 98.0912C53.0585 98.0286 53.0595 97.9633 53.0463 97.9002L52.6809 96.1622C52.6658 96.0914 52.6332 96.0254 52.586 95.9704C52.5389 95.9153 52.4788 95.873 52.4112 95.8471C52.3622 95.8279 52.3101 95.8181 52.2575 95.8181H29.4481C29.3955 95.8181 29.3434 95.8279 29.2944 95.8471C29.2268 95.873 29.1667 95.9153 29.1196 95.9704C29.0725 96.0254 29.0399 96.0914 29.0247 96.1622L28.6593 97.9002C28.6463 97.9633 28.6475 98.0284 28.6628 98.091C28.6781 98.1535 28.7071 98.2119 28.7478 98.2618Z" fill="#2F2E41"/>
<path d="M51.4499 96.5667H52.0058C52.0525 96.5667 52.0903 96.5288 52.0903 96.482V96.2157C52.0903 96.1689 52.0525 96.1311 52.0058 96.1311H51.4499C51.4032 96.1311 51.3654 96.1689 51.3654 96.2157V96.482C51.3654 96.5288 51.4032 96.5667 51.4499 96.5667Z" fill="#3F3D56"/>
<path d="M49.9999 96.5667H50.5559C50.6025 96.5667 50.6404 96.5288 50.6404 96.482V96.2157C50.6404 96.1689 50.6025 96.1311 50.5559 96.1311H49.9999C49.9532 96.1311 49.9154 96.1689 49.9154 96.2157V96.482C49.9154 96.5288 49.9532 96.5667 49.9999 96.5667Z" fill="#3F3D56"/>
<path d="M48.5499 96.5667H49.1059C49.1526 96.5667 49.1904 96.5288 49.1904 96.482V96.2157C49.1904 96.1689 49.1526 96.1311 49.1059 96.1311H48.5499C48.5033 96.1311 48.4654 96.1689 48.4654 96.2157V96.482C48.4654 96.5288 48.5033 96.5667 48.5499 96.5667Z" fill="#3F3D56"/>
<path d="M47.1 96.5667H47.656C47.7026 96.5667 47.7405 96.5288 47.7405 96.482V96.2157C47.7405 96.1689 47.7026 96.1311 47.656 96.1311H47.1C47.0533 96.1311 47.0155 96.1689 47.0155 96.2157V96.482C47.0155 96.5288 47.0533 96.5667 47.1 96.5667Z" fill="#3F3D56"/>
<path d="M45.65 96.5667H46.206C46.2527 96.5667 46.2905 96.5288 46.2905 96.482V96.2157C46.2905 96.1689 46.2527 96.1311 46.206 96.1311H45.65C45.6034 96.1311 45.5655 96.1689 45.5655 96.2157V96.482C45.5655 96.5288 45.6034 96.5667 45.65 96.5667Z" fill="#3F3D56"/>
<path d="M44.2 96.5667H44.756C44.8026 96.5667 44.8405 96.5288 44.8405 96.482V96.2157C44.8405 96.1689 44.8026 96.1311 44.756 96.1311H44.2C44.1533 96.1311 44.1155 96.1689 44.1155 96.2157V96.482C44.1155 96.5288 44.1533 96.5667 44.2 96.5667Z" fill="#3F3D56"/>
<path d="M42.75 96.5667H43.306C43.3527 96.5667 43.3905 96.5288 43.3905 96.482V96.2157C43.3905 96.1689 43.3527 96.1311 43.306 96.1311H42.75C42.7034 96.1311 42.6655 96.1689 42.6655 96.2157V96.482C42.6655 96.5288 42.7034 96.5667 42.75 96.5667Z" fill="#3F3D56"/>
<path d="M41.3001 96.5667H41.8561C41.9027 96.5667 41.9406 96.5288 41.9406 96.482V96.2157C41.9406 96.1689 41.9027 96.1311 41.8561 96.1311H41.3001C41.2534 96.1311 41.2156 96.1689 41.2156 96.2157V96.482C41.2156 96.5288 41.2534 96.5667 41.3001 96.5667Z" fill="#3F3D56"/>
<path d="M39.8501 96.5667H40.4061C40.4528 96.5667 40.4906 96.5288 40.4906 96.482V96.2157C40.4906 96.1689 40.4528 96.1311 40.4061 96.1311H39.8501C39.8034 96.1311 39.7656 96.1689 39.7656 96.2157V96.482C39.7656 96.5288 39.8034 96.5667 39.8501 96.5667Z" fill="#3F3D56"/>
<path d="M38.4002 96.5667H38.9561C39.0028 96.5667 39.0406 96.5288 39.0406 96.482V96.2157C39.0406 96.1689 39.0028 96.1311 38.9561 96.1311H38.4002C38.3535 96.1311 38.3157 96.1689 38.3157 96.2157V96.482C38.3157 96.5288 38.3535 96.5667 38.4002 96.5667Z" fill="#3F3D56"/>
<path d="M36.9502 96.5667H37.5062C37.5529 96.5667 37.5907 96.5288 37.5907 96.482V96.2157C37.5907 96.1689 37.5529 96.1311 37.5062 96.1311H36.9502C36.9035 96.1311 36.8657 96.1689 36.8657 96.2157V96.482C36.8657 96.5288 36.9035 96.5667 36.9502 96.5667Z" fill="#3F3D56"/>
<path d="M35.5003 96.5667H36.0562C36.1029 96.5667 36.1407 96.5288 36.1407 96.482V96.2157C36.1407 96.1689 36.1029 96.1311 36.0562 96.1311H35.5003C35.4536 96.1311 35.4158 96.1689 35.4158 96.2157V96.482C35.4158 96.5288 35.4536 96.5667 35.5003 96.5667Z" fill="#3F3D56"/>
<path d="M34.0503 96.5667H34.6063C34.653 96.5667 34.6908 96.5288 34.6908 96.482V96.2157C34.6908 96.1689 34.653 96.1311 34.6063 96.1311H34.0503C34.0036 96.1311 33.9658 96.1689 33.9658 96.2157V96.482C33.9658 96.5288 34.0036 96.5667 34.0503 96.5667Z" fill="#3F3D56"/>
<path d="M32.6004 96.5667H33.1563C33.203 96.5667 33.2408 96.5288 33.2408 96.482V96.2157C33.2408 96.1689 33.203 96.1311 33.1563 96.1311H32.6004C32.5537 96.1311 32.5159 96.1689 32.5159 96.2157V96.482C32.5159 96.5288 32.5537 96.5667 32.6004 96.5667Z" fill="#3F3D56"/>
<path d="M31.1503 96.5667H31.7063C31.7529 96.5667 31.7908 96.5288 31.7908 96.482V96.2157C31.7908 96.1689 31.7529 96.1311 31.7063 96.1311H31.1503C31.1036 96.1311 31.0658 96.1689 31.0658 96.2157V96.482C31.0658 96.5288 31.1036 96.5667 31.1503 96.5667Z" fill="#3F3D56"/>
<path d="M29.7003 96.5667H30.2563C30.303 96.5667 30.3408 96.5288 30.3408 96.482V96.2157C30.3408 96.1689 30.303 96.1311 30.2563 96.1311H29.7003C29.6537 96.1311 29.6158 96.1689 29.6158 96.2157V96.482C29.6158 96.5288 29.6537 96.5667 29.7003 96.5667Z" fill="#3F3D56"/>
<path d="M51.4669 97.2927H52.0229C52.0696 97.2927 52.1074 97.2548 52.1074 97.2081V96.9418C52.1074 96.895 52.0696 96.8571 52.0229 96.8571H51.4669C51.4203 96.8571 51.3824 96.895 51.3824 96.9418V97.2081C51.3824 97.2548 51.4203 97.2927 51.4669 97.2927Z" fill="#3F3D56"/>
<path d="M50.017 97.2927H50.573C50.6196 97.2927 50.6575 97.2548 50.6575 97.2081V96.9418C50.6575 96.895 50.6196 96.8571 50.573 96.8571H50.017C49.9703 96.8571 49.9325 96.895 49.9325 96.9418V97.2081C49.9325 97.2548 49.9703 97.2927 50.017 97.2927Z" fill="#3F3D56"/>
<path d="M48.567 97.2927H49.123C49.1697 97.2927 49.2075 97.2548 49.2075 97.2081V96.9418C49.2075 96.895 49.1697 96.8571 49.123 96.8571H48.567C48.5204 96.8571 48.4825 96.895 48.4825 96.9418V97.2081C48.4825 97.2548 48.5204 97.2927 48.567 97.2927Z" fill="#3F3D56"/>
<path d="M47.1171 97.2927H47.6731C47.7197 97.2927 47.7576 97.2548 47.7576 97.2081V96.9418C47.7576 96.895 47.7197 96.8571 47.6731 96.8571H47.1171C47.0704 96.8571 47.0326 96.895 47.0326 96.9418V97.2081C47.0326 97.2548 47.0704 97.2927 47.1171 97.2927Z" fill="#3F3D56"/>
<path d="M45.6671 97.2927H46.2231C46.2698 97.2927 46.3076 97.2548 46.3076 97.2081V96.9418C46.3076 96.895 46.2698 96.8571 46.2231 96.8571H45.6671C45.6205 96.8571 45.5826 96.895 45.5826 96.9418V97.2081C45.5826 97.2548 45.6205 97.2927 45.6671 97.2927Z" fill="#3F3D56"/>
<path d="M44.2172 97.2927H44.7732C44.8198 97.2927 44.8577 97.2548 44.8577 97.2081V96.9418C44.8577 96.895 44.8198 96.8571 44.7732 96.8571H44.2172C44.1705 96.8571 44.1327 96.895 44.1327 96.9418V97.2081C44.1327 97.2548 44.1705 97.2927 44.2172 97.2927Z" fill="#3F3D56"/>
<path d="M42.7672 97.2927H43.3232C43.3699 97.2927 43.4077 97.2548 43.4077 97.2081V96.9418C43.4077 96.895 43.3699 96.8571 43.3232 96.8571H42.7672C42.7206 96.8571 42.6827 96.895 42.6827 96.9418V97.2081C42.6827 97.2548 42.7206 97.2927 42.7672 97.2927Z" fill="#3F3D56"/>
<path d="M41.3173 97.2927H41.8733C41.9199 97.2927 41.9578 97.2548 41.9578 97.2081V96.9418C41.9578 96.895 41.9199 96.8571 41.8733 96.8571H41.3173C41.2706 96.8571 41.2328 96.895 41.2328 96.9418V97.2081C41.2328 97.2548 41.2706 97.2927 41.3173 97.2927Z" fill="#3F3D56"/>
<path d="M39.8672 97.2927H40.4232C40.4699 97.2927 40.5077 97.2548 40.5077 97.2081V96.9418C40.5077 96.895 40.4699 96.8571 40.4232 96.8571H39.8672C39.8205 96.8571 39.7827 96.895 39.7827 96.9418V97.2081C39.7827 97.2548 39.8205 97.2927 39.8672 97.2927Z" fill="#3F3D56"/>
<path d="M38.4172 97.2927H38.9732C39.0199 97.2927 39.0577 97.2548 39.0577 97.2081V96.9418C39.0577 96.895 39.0199 96.8571 38.9732 96.8571H38.4172C38.3706 96.8571 38.3327 96.895 38.3327 96.9418V97.2081C38.3327 97.2548 38.3706 97.2927 38.4172 97.2927Z" fill="#3F3D56"/>
<path d="M36.9673 97.2927H37.5233C37.57 97.2927 37.6078 97.2548 37.6078 97.2081V96.9418C37.6078 96.895 37.57 96.8571 37.5233 96.8571H36.9673C36.9206 96.8571 36.8828 96.895 36.8828 96.9418V97.2081C36.8828 97.2548 36.9206 97.2927 36.9673 97.2927Z" fill="#3F3D56"/>
<path d="M35.5174 97.2927H36.0733C36.12 97.2927 36.1578 97.2548 36.1578 97.2081V96.9418C36.1578 96.895 36.12 96.8571 36.0733 96.8571H35.5174C35.4707 96.8571 35.4328 96.895 35.4328 96.9418V97.2081C35.4328 97.2548 35.4707 97.2927 35.5174 97.2927Z" fill="#3F3D56"/>
<path d="M34.0674 97.2927H34.6234C34.6701 97.2927 34.7079 97.2548 34.7079 97.2081V96.9418C34.7079 96.895 34.6701 96.8571 34.6234 96.8571H34.0674C34.0207 96.8571 33.9829 96.895 33.9829 96.9418V97.2081C33.9829 97.2548 34.0207 97.2927 34.0674 97.2927Z" fill="#3F3D56"/>
<path d="M32.6174 97.2927H33.1734C33.2201 97.2927 33.2579 97.2548 33.2579 97.2081V96.9418C33.2579 96.895 33.2201 96.8571 33.1734 96.8571H32.6174C32.5708 96.8571 32.5329 96.895 32.5329 96.9418V97.2081C32.5329 97.2548 32.5708 97.2927 32.6174 97.2927Z" fill="#3F3D56"/>
<path d="M31.1675 97.2927H31.7235C31.7702 97.2927 31.808 97.2548 31.808 97.2081V96.9418C31.808 96.895 31.7702 96.8571 31.7235 96.8571H31.1675C31.1208 96.8571 31.083 96.895 31.083 96.9418V97.2081C31.083 97.2548 31.1208 97.2927 31.1675 97.2927Z" fill="#3F3D56"/>
<path d="M29.7175 97.2927H30.2735C30.3202 97.2927 30.358 97.2548 30.358 97.2081V96.9418C30.358 96.895 30.3202 96.8571 30.2735 96.8571H29.7175C29.6709 96.8571 29.633 96.895 29.633 96.9418V97.2081C29.633 97.2548 29.6709 97.2927 29.7175 97.2927Z" fill="#3F3D56"/>
<path d="M39.4322 98.1638H45.0631C45.1098 98.1638 45.1476 98.1259 45.1476 98.0792V97.8128C45.1476 97.7661 45.1098 97.7282 45.0631 97.7282H39.4322C39.3856 97.7282 39.3477 97.7661 39.3477 97.8128V98.0792C39.3477 98.1259 39.3856 98.1638 39.4322 98.1638Z" fill="#3F3D56"/>
<path d="M81.8642 97.454L91.7026 88.8407C92.1704 88.4311 91.2783 89.6513 91.6873 90.1197C92.0963 90.5882 93.6515 90.1275 93.1837 90.537L83.3453 99.1503L80.8538 99.72L81.8642 97.454Z" fill="#3F3D56"/>
<path d="M81.8642 97.4539L82.1027 97.2451C82.421 97.4049 82.705 97.6255 82.9387 97.8946C83.2155 98.2107 83.4165 98.5859 83.5264 98.9917L83.3453 99.1502L81.3595 99.604L80.8538 99.7199L81.0646 99.2452L81.8642 97.4539Z" fill="#CCCCCC"/>
<path d="M81.0646 99.2452C81.1384 99.2778 81.2035 99.3272 81.2547 99.3895C81.3059 99.4519 81.3418 99.5253 81.3595 99.6041L80.8538 99.72L81.0646 99.2452Z" fill="#3F3D56"/>
<path d="M146.056 69.8477C145.128 71.2378 143.643 72.1997 142.044 72.6764C141.394 72.87 140.723 72.9841 140.046 73.0161C139.963 72.2494 139.763 71.5001 139.453 70.794C139.484 71.5456 139.38 72.2966 139.145 73.0109C138.128 72.9532 137.134 72.6865 136.225 72.2275C134.45 71.3175 133.085 69.5773 132.782 67.6031C132.425 65.2978 133.469 63.0342 133.846 60.7324C134.225 58.4306 133.514 55.5152 131.264 54.9103C129.55 54.4492 129.742 54.6486 128.318 55.7076C129.8 57.9016 124.327 65.9417 122.087 65.2406C120.82 64.8442 120.01 63.6807 119.748 63.6807C117.988 66.7174 121.303 71.834 117.962 72.8965L118.237 72.6209C120.254 70.1371 116.039 64.8801 118.055 62.3963C118.618 61.7013 119.217 60.878 119.051 59.9992C118.893 59.1637 117.569 58.7218 117.181 59.4081C117.879 57.8083 116.849 55.6729 115.144 55.2621C113.63 54.8964 113.657 55.3471 112.138 55.5429C112.038 54.8852 111.853 54.2436 111.585 53.6346C111.613 54.2908 111.537 54.9472 111.359 55.5793C110.822 55.5688 110.303 55.3812 109.884 55.0455C108.645 54.0454 108.896 51.9446 110.002 50.7989C111.109 49.6532 112.755 49.2407 114.325 48.9738C114.782 45.7914 123.55 45.4594 124.712 48.6393C125.207 46.2647 128.176 45.0323 130.483 45.769C132.791 46.5056 134.392 48.6635 135.235 50.9376C136.077 53.2099 136.313 55.6556 136.832 58.0233C137.351 60.3909 138.229 62.8019 140.036 64.4156C141.843 66.0275 144.787 66.5614 146.691 65.0638C147.292 66.6238 146.982 68.4559 146.056 69.8477Z" fill="#2F2E41"/>
</g>
<defs>
<clipPath id="clip0_7_206">
<rect width="147" height="145.942" fill="white"/>
</clipPath>
</defs>
</svg>
