<svg width="97" height="93" viewBox="0 0 97 93" fill="none" xmlns="http://www.w3.org/2000/svg">
<path d="M72.0473 92.76C70.0223 92.7413 68.0547 92.0854 66.4235 90.8854L50.0428 78.9681C49.5463 78.6185 48.9539 78.4309 48.3467 78.4309C47.7395 78.4309 47.1471 78.6185 46.6506 78.9681L30.4932 90.8854C28.8549 92.0762 26.8819 92.7181 24.8566 92.7193C22.8313 92.7204 20.8576 92.0808 19.2179 90.892C17.5783 89.7031 16.3568 88.026 15.7284 86.1006C15.1 84.1753 15.0968 82.1005 15.7193 80.1733L21.7895 60.936C21.9668 60.3486 21.9591 59.7209 21.7675 59.1381C21.5758 58.5552 21.2096 58.0454 20.7183 57.6778L4.33769 45.7605C2.68849 44.5798 1.45796 42.9048 0.824295 40.9781C0.190635 39.0513 0.186752 36.9729 0.813209 35.0438C1.43967 33.1147 2.66394 31.4351 4.30871 30.2483C5.95347 29.0615 7.93334 28.429 9.96156 28.4426H30.2254C30.8399 28.444 31.439 28.2503 31.9364 27.8893C32.4337 27.5283 32.8036 27.0187 32.9927 26.434L39.4199 7.15217C40.0562 5.24037 41.278 3.57733 42.9123 2.3988C44.5466 1.22028 46.5104 0.58606 48.5253 0.58606C50.5401 0.58606 52.5039 1.22028 54.1382 2.3988C55.7725 3.57733 56.9943 5.24037 57.6306 7.15217L63.8793 26.434C64.0684 27.0187 64.4383 27.5283 64.9356 27.8893C65.433 28.2503 66.0321 28.444 66.6466 28.4426H86.7319C88.7601 28.429 90.74 29.0615 92.3847 30.2483C94.0295 31.4351 95.2538 33.1147 95.8802 35.0438C96.5067 36.9729 96.5028 39.0513 95.8692 40.9781C95.2355 42.9048 94.005 44.5798 92.3558 45.7605L75.9751 57.6778C75.4876 58.0381 75.1231 58.5401 74.9314 59.1152C74.7397 59.6903 74.7301 60.3106 74.9039 60.8914L81.1973 80.1733C81.8343 82.0967 81.84 84.1734 81.2137 86.1004C80.5875 88.0274 79.3619 89.7039 77.7158 90.8854C76.0709 92.0916 74.0871 92.7476 72.0473 92.76ZM48.3467 71.7375C50.3658 71.7492 52.3312 72.3887 53.9706 73.5674L70.3512 85.4847C70.852 85.8444 71.4531 86.0378 72.0697 86.0378C72.6862 86.0378 73.2873 85.8444 73.7881 85.4847C74.2895 85.1371 74.662 84.6336 74.8477 84.0524C75.0333 83.4712 75.0217 82.845 74.8146 82.2711L68.5659 62.9892C67.9289 61.0657 67.9231 58.989 68.5494 57.062C69.1757 55.1351 70.4012 53.4586 72.0473 52.2771L88.5173 40.3598C89.0153 40.0085 89.3879 39.5071 89.5806 38.9289C89.7733 38.3507 89.7761 37.726 89.5885 37.1462C89.4121 36.5538 89.0454 36.036 88.5452 35.6729C88.045 35.3099 87.439 35.1217 86.8212 35.1376H66.4681C64.4789 35.0978 62.5514 34.4406 60.9521 33.2572C59.3528 32.0737 58.1609 30.4224 57.5413 28.5318L51.2926 9.24997C51.1072 8.66124 50.7389 8.14697 50.2413 7.78189C49.7436 7.41682 49.1425 7.21998 48.5253 7.21998C47.908 7.21998 47.3069 7.41682 46.8092 7.78189C46.3116 8.14697 45.9433 8.66124 45.758 9.24997L39.4199 28.4872C38.8079 30.3861 37.6193 32.0471 36.0194 33.239C34.4195 34.431 32.4878 35.0946 30.4932 35.1376H9.96156C9.34367 35.1217 8.73776 35.3099 8.23753 35.6729C7.73731 36.036 7.37065 36.5538 7.19425 37.1462C7.00663 37.726 7.00938 38.3507 7.20211 38.9289C7.39484 39.5071 7.76745 40.0085 8.26547 40.3598L24.6461 52.2771C26.2922 53.4586 27.5177 55.1351 28.144 57.062C28.7703 58.989 28.7645 61.0657 28.1276 62.9892L21.8788 82.3603C21.6717 82.9342 21.6601 83.5605 21.8458 84.1417C22.0314 84.7229 22.4039 85.2264 22.9054 85.574C23.4062 85.9336 24.0072 86.1271 24.6238 86.1271C25.2404 86.1271 25.8414 85.9336 26.3422 85.574L42.7228 73.4335C44.378 72.3023 46.3421 71.71 48.3467 71.7375Z" fill="white"/>
</svg>
