<svg width="147" height="147" viewBox="0 0 147 147" fill="none" xmlns="http://www.w3.org/2000/svg">
<g clip-path="url(#clip0_7_121)">
<path d="M147 73.5C147.009 81.5371 145.698 89.5211 143.118 97.1331C142.971 97.568 142.819 98.0014 142.664 98.4335C139.932 105.987 135.983 113.043 130.971 119.32C129.475 121.197 127.89 122.996 126.216 124.717C124.541 126.442 122.783 128.082 120.942 129.638C110.673 138.347 98.1976 144.051 84.8925 146.121H84.8903C83.1942 146.385 81.4813 146.59 79.7518 146.737C77.6925 146.911 75.6086 146.999 73.5 147C63.6943 147.013 53.9858 145.057 44.9498 141.249C35.9138 137.441 27.734 131.858 20.8953 124.83C20.4148 124.339 19.9414 123.84 19.4753 123.334C18.3141 122.075 17.1971 120.777 16.1244 119.44C15.522 118.687 14.9341 117.923 14.3608 117.148C10.8291 112.376 7.89072 107.193 5.61037 101.713C4.63791 99.3784 3.78867 96.9948 3.06615 94.5715C3.01396 94.3997 2.96394 94.2279 2.91393 94.0561C2.8052 93.6864 2.7001 93.3146 2.59862 92.9405C0.868788 86.6054 -0.00517432 80.0671 2.30447e-05 73.5C2.30447e-05 32.9076 32.9076 0 73.5 0C114.092 0 147 32.9076 147 73.5Z" fill="#F2F2F2"/>
<path d="M31.1718 43.933C31.058 44.6239 31.0971 45.3314 31.2863 46.0055C31.4755 46.6797 31.8102 47.3042 32.2669 47.835C32.7235 48.3658 33.291 48.79 33.9293 49.0778C34.5677 49.3656 35.2614 49.5099 35.9615 49.5005L47.6942 83.6395L55.1805 78.4945L40.7287 44.3024C40.635 43.1272 40.1136 42.0272 39.2631 41.2108C38.4127 40.3945 37.2923 39.9184 36.1143 39.8729C34.9363 39.8273 33.7825 40.2155 32.8716 40.9638C31.9607 41.7121 31.3559 42.7686 31.1718 43.933Z" fill="#A0616A"/>
<path d="M92.409 55.4838C87.1988 61.4116 74.3515 71.8582 63.7679 79.0516C61.4803 80.6064 59.297 82.0068 57.3204 83.1789C55.9852 83.9705 54.7435 84.6554 53.6258 85.2143C52.8756 85.588 52.0563 85.8028 51.2193 85.8452C50.3823 85.8876 49.5455 85.7567 48.7614 85.4607C47.9773 85.1646 47.2628 84.7099 46.6626 84.125C46.0624 83.54 45.5894 82.8374 45.2733 82.0612L37.9451 64.332L40.4806 62.6511L46.7325 58.5042L48.1524 57.5648L54.015 71.5276L60.1973 66.5653L64.0354 63.4839L81.5319 49.4428L83.041 48.9949L86.5616 52.4307L89.0515 54.8618L91.3935 55.2685C91.7436 55.3294 92.0828 55.4011 92.409 55.4838Z" fill="#6C63FF"/>
<path d="M139.154 104.197C139.517 104.658 139.894 105.116 140.27 105.577C138.974 108.238 137.517 110.818 135.908 113.301C135.788 113.217 135.668 113.132 135.549 113.047C135.53 113.037 135.512 113.025 135.494 113.012C135.049 112.695 134.601 112.382 134.155 112.064V112.062C133.787 110.81 133.582 109.517 133.544 108.213C133.774 108.16 133.982 108.038 134.14 107.863C134.298 107.688 134.399 107.469 134.428 107.234C134.457 107 134.414 106.763 134.303 106.554C134.193 106.346 134.021 106.176 133.811 106.069C133.753 105.967 133.711 105.893 133.653 105.788C133.655 105.762 133.659 105.734 133.661 105.708C134.003 102.992 137.465 102.044 139.154 104.197Z" fill="white"/>
<path d="M143.057 94.8894C143.318 95.607 143.556 96.3326 143.771 97.0662C143.623 97.5011 143.471 97.9345 143.316 98.3666C143.258 98.1382 143.197 97.9099 143.134 97.6816C142.78 96.412 142.355 95.1633 141.861 93.9413C141.457 92.9389 141.009 91.9574 140.518 90.997C137.845 85.7794 133.973 81.2705 129.219 77.8409C127.254 77.3865 125.476 76.3407 124.124 74.8444C123.636 74.3067 123.228 73.7018 122.912 73.0482C123.112 73.0199 123.312 72.9808 123.508 72.9395C123.569 72.9264 123.632 72.9112 123.693 72.8981L123.717 72.8938C123.931 72.8442 124.126 72.7338 124.279 72.576C124.431 72.4181 124.535 72.2195 124.578 72.004C124.62 71.7886 124.6 71.5654 124.518 71.3614C124.437 71.1574 124.298 70.9812 124.119 70.8541C124.008 70.7736 123.895 70.6953 123.784 70.617C123.615 70.4931 123.443 70.3757 123.271 70.2539C123.253 70.2426 123.236 70.2303 123.219 70.2169C123.023 70.0778 122.828 69.9429 122.634 69.8016C122.784 69.317 123.044 68.8736 123.393 68.5056C124.609 67.2508 126.779 67.2791 128.197 68.3011C129.617 69.3232 130.33 71.1128 130.421 72.8568C130.502 74.3508 130.18 75.8295 129.756 77.2712C129.862 77.3495 129.973 77.4234 130.08 77.5039C132.037 78.9548 133.848 80.5943 135.486 82.3988C134.54 80.1547 134.196 77.2277 134.442 75.2119C134.722 72.9156 135.838 70.7345 136.751 68.5621C137.845 65.9526 141.577 65.9178 142.629 68.5447C142.64 68.5708 142.651 68.5947 142.659 68.6208C142.483 68.7969 142.314 68.9796 142.151 69.1688C141.946 69.4072 141.818 69.7018 141.783 70.0142C141.749 70.3266 141.81 70.6421 141.957 70.9194C142.105 71.1967 142.333 71.4229 142.612 71.5684C142.89 71.7139 143.206 71.7719 143.518 71.7348L143.551 71.7304C143.687 72.5056 143.764 73.29 143.782 74.0768C143.809 76.278 143.381 78.4611 142.524 80.4893C141.668 82.5174 140.402 84.3468 138.806 85.8629C138.702 85.9607 138.6 86.0564 138.493 86.1499C139.5 87.5824 140.405 89.0844 141.2 90.6447C141.906 92.02 142.527 93.4376 143.057 94.8894Z" fill="white"/>
<path d="M101.157 74.4894L100.5 119.592L47.45 118.07L55.922 99.3685C55.8611 98.7683 59.6405 94.5562 59.6188 93.9321C59.5535 92.1033 60.9191 90.4093 61.141 88.4957C61.5933 84.5489 59.0034 69.6445 60.1972 66.5653C60.7058 65.1903 61.3574 63.8725 62.1413 62.6337C62.8197 61.6073 63.5156 60.9158 64.181 60.6657L66.1424 56.0948L67.8821 53.4853L81.5318 49.4428L83.0409 48.9949L86.5615 52.4307L89.0514 54.8618L91.3934 55.2685C91.7435 55.3294 92.0827 55.4011 92.4089 55.4838C93.9799 55.846 95.4441 56.5714 96.6841 57.6018C100.772 61.0745 101.248 67.6069 101.157 74.4894Z" fill="#6C63FF"/>
<path d="M131.624 119.253C130.128 121.13 128.542 122.929 126.868 124.65L121.131 124.655L90.281 124.69L84.7272 124.696L81.0348 124.7L75.5418 124.705L71.3167 124.709L63.5122 124.718L58.9086 124.724L49.2145 124.733L44.587 124.74L31.7637 124.753L23.7091 124.761L21.5476 124.763C21.067 124.272 20.5937 123.773 20.1276 123.267C18.9664 122.008 17.8494 120.71 16.7766 119.373L21.2519 119.368L24.3006 119.366L31.3592 119.358L44.9806 119.345L49.5841 119.34L51.4456 119.338H51.4521L52.9134 119.336L53.5679 119.334L55.2445 119.331H55.9534L60.9245 119.327L71.6472 119.314L76.366 119.31L80.8847 119.305L85.1208 119.301L91.1986 119.294L123.66 119.262L131.624 119.253Z" fill="#CCCCCC"/>
<path d="M58.2272 51.5309L58.2154 51.532C57.5881 51.5904 56.9632 51.3972 56.4784 50.9948C55.9935 50.5925 55.6883 50.0141 55.6299 49.3868L54.3933 36.1873C54.1695 33.8227 54.4234 31.4372 55.1399 29.1727C56.5444 24.753 59.6002 21.0458 63.6706 18.8237C65.7724 17.6793 68.0841 16.9723 70.4664 16.7454C80.2126 15.8168 83.7743 17.8467 89.7948 32.7113C95.8153 47.5758 91.0333 45.9308 91.0333 45.9308C91.0635 46.2489 91.0293 46.5699 90.9327 46.8745C90.7432 47.4687 90.3314 47.9668 89.7834 48.2647C89.5022 48.4172 89.1931 48.5116 88.8747 48.5423C77.3525 51.4711 65.7262 54.554 58.2252 51.5311L58.2272 51.5309Z" fill="#2F2E41"/>
<path d="M79.673 29.2523C81.1193 31.3923 81.8991 33.9129 81.9137 36.4958C81.9284 39.0787 81.1773 41.608 79.7553 43.7643C78.3333 45.9206 76.3042 47.6071 73.9243 48.6109C71.5444 49.6147 68.9204 49.8906 66.3837 49.404C64.7045 49.0873 63.1048 48.4405 61.6774 47.5012C60.2499 46.5618 59.023 45.3486 58.0678 43.9317C56.6245 41.7924 55.8469 39.2736 55.8331 36.693C55.8192 34.1124 56.5698 31.5854 57.99 29.4308C59.4103 27.2761 61.4368 25.5902 63.8138 24.5856C66.1909 23.581 68.8122 23.3027 71.3473 23.7858C73.0278 24.1007 74.6291 24.746 76.0583 25.6845C77.4875 26.6229 78.7162 27.8358 79.673 29.2528L79.673 29.2523Z" fill="#9E616A"/>
<path d="M50.3074 37.6537C50.1305 35.7836 50.3313 33.897 50.898 32.106C51.0294 27.7249 52.3005 23.7567 57.6441 23.9232C59.2958 23.0247 61.1115 22.4675 62.9829 22.285L65.6235 22.0242C65.6532 22.0213 65.6829 22.0184 65.7126 22.0156C67.542 21.8454 69.3871 22.0371 71.1424 22.5799C72.8978 23.1227 74.5291 24.006 75.9431 25.1792C77.3571 26.3524 78.5262 27.7927 79.3836 29.4177C80.241 31.0427 80.7699 32.8207 80.9402 34.6502L80.965 34.9146L75.3783 35.4607L72.9739 30.3154L73.0925 35.6853L70.2071 35.9685L68.9945 33.3725L69.0537 36.08C64.7696 39.8532 58.2731 40.051 50.3347 37.9184L50.3074 37.6537Z" fill="#2F2E41"/>
<path d="M68.1778 50.179C68.1302 50.6139 68.2057 51.0535 68.3956 51.4476C68.4912 51.6495 68.6147 51.8369 68.7624 52.0045C68.8888 52.1473 69.0316 52.2746 69.1879 52.3838C69.6507 52.706 70.2132 52.8528 70.7744 52.7977C70.8094 52.7941 70.8443 52.7899 70.8791 52.785C70.9139 52.78 70.9487 52.7743 70.9834 52.7678C71.0184 52.7615 71.0532 52.7543 71.0878 52.7461C71.1223 52.7379 71.1569 52.7291 71.1917 52.7196L73.1415 52.1732L75.3267 46.0802L75.8276 51.4267L84.6939 48.9583L82.5683 26.27L67.4563 27.7591L67.8707 28.1582C69.2478 29.4985 70.2284 31.1928 70.7045 33.0545C71.1772 34.9411 71.3231 36.8947 71.1358 38.8306C70.961 40.788 70.5985 42.7242 70.0536 44.6124C69.5792 46.2843 69.0088 47.9276 68.3454 49.5339C68.2596 49.7401 68.2032 49.9572 68.1778 50.179Z" fill="#2F2E41"/>
<path d="M70.1928 121.712C69.933 121.712 69.6765 121.654 69.4419 121.542L27.5773 122.61C27.2561 122.458 26.9886 122.212 26.8101 121.905C26.6316 121.597 26.5505 121.243 26.5776 120.888C26.6047 120.534 26.7387 120.196 26.9618 119.919C27.185 119.643 27.4868 119.44 27.8274 119.339L55.2164 111.172C55.5 111.088 55.8004 111.076 56.0897 111.139L98.4557 116.302C98.8306 116.383 99.1687 116.585 99.4183 116.876C99.668 117.167 99.8155 117.532 99.8383 117.915C99.8611 118.298 99.758 118.678 99.5447 118.997C99.3315 119.315 99.0197 119.556 98.6571 119.681L70.7665 121.615C70.582 121.679 70.3881 121.712 70.1928 121.712Z" fill="#3F3D56"/>
<path d="M71.7327 118.798C71.5437 118.798 71.3578 118.749 71.1927 118.657L37.1926 120.245C36.9996 120.137 36.8436 119.973 36.745 119.775C36.6464 119.577 36.6098 119.354 36.6399 119.134C36.67 118.915 36.7655 118.71 36.9138 118.545C37.0622 118.381 37.2566 118.265 37.4717 118.213L49.7805 115.226C49.9726 115.179 50.1736 115.185 50.3627 115.243L81.9706 115.205C82.1957 115.274 82.3927 115.413 82.533 115.602C82.6733 115.791 82.7494 116.019 82.7502 116.255C82.7511 116.49 82.6766 116.72 82.5376 116.909C82.3987 117.099 82.2026 117.24 81.978 117.31L72.0615 118.747C71.9551 118.781 71.8442 118.798 71.7327 118.798Z" fill="#2F2E41"/>
<path d="M68.1538 116.985C68.7423 117.365 69.4069 117.611 70.1006 117.705C70.7944 117.8 71.5005 117.742 72.1692 117.534C72.8379 117.327 73.453 116.975 73.9711 116.504C74.4892 116.033 74.8977 115.454 75.1678 114.808L111.156 117.635L109.416 108.719L72.297 108.365C71.1817 107.983 69.9651 108.024 68.8776 108.479C67.7901 108.934 66.9074 109.773 66.3967 110.835C65.886 111.898 65.7828 113.111 66.1066 114.244C66.4305 115.378 67.1589 116.353 68.1538 116.985Z" fill="#A0616A"/>
<path d="M89.4102 58.9218C89.4102 58.9218 94.8466 54.5727 101.37 62.4011C105.77 67.6805 114.257 99.5957 114.96 112.821C115.005 113.658 114.876 114.495 114.582 115.28C114.288 116.064 113.835 116.78 113.251 117.381C112.667 117.983 111.966 118.457 111.19 118.775C110.415 119.092 109.582 119.246 108.744 119.227L89.5624 118.893L87.4175 106.835L102.562 107.015L89.4102 58.9218Z" fill="#6C63FF"/>
<path d="M67.8645 121.717C67.2064 121.716 66.5551 121.584 65.9487 121.329L27.1454 122.214C26.1214 121.787 25.2713 121.027 24.7326 120.057C24.1939 119.087 23.9981 117.964 24.177 116.869L22.7351 82.7908C22.9263 81.5736 23.567 80.4723 24.5306 79.7044C25.4942 78.9365 26.7107 78.5579 27.9399 78.6432L63.9643 80.1373C64.6558 80.1826 65.3301 80.3728 65.9433 80.6955C66.5566 81.0182 67.0952 81.4662 67.5242 82.0104C67.9532 82.5547 68.263 83.183 68.4335 83.8547C68.604 84.5264 68.6314 85.2264 68.514 85.9094L72.7347 117.608C72.5362 118.756 71.939 119.798 71.0482 120.549C70.1574 121.301 69.03 121.714 67.8645 121.717Z" fill="#3F3D56"/>
<path d="M38.3995 20.2603L22.2056 20.2146C21.7715 20.2141 21.355 20.3857 21.0472 20.6918C20.7395 20.998 20.5656 21.4136 20.5638 21.8477L20.5051 43.291C20.5042 43.7246 20.6755 44.1409 20.9813 44.4483C21.2871 44.7558 21.7024 44.9292 22.136 44.9306L31.1191 44.9567L38.3321 44.9763C38.7661 44.9771 39.1826 44.8055 39.4901 44.4992C39.7976 44.193 39.9708 43.7771 39.9718 43.3432L39.9761 42.0754L40.0326 21.9021C40.0335 21.4679 39.862 21.0511 39.5558 20.7432C39.2496 20.4354 38.8337 20.2617 38.3995 20.2603Z" fill="#E6E6E6"/>
<path d="M37.2579 21.5411L23.3407 21.502C22.9343 21.5014 22.5443 21.6621 22.2561 21.9486C21.9679 22.2352 21.8051 22.6243 21.8033 23.0307L21.7642 36.8174C21.7614 38.6279 22.4769 40.3656 23.7537 41.6493C25.0305 42.9331 26.7643 43.658 28.5749 43.665L31.2191 43.6716L37.197 43.689C37.6035 43.6898 37.9937 43.5293 38.282 43.2427C38.5703 42.9561 38.733 42.5667 38.7344 42.1602L38.7387 40.7729L38.7866 23.0785C38.7875 22.672 38.627 22.2818 38.3403 21.9935C38.0537 21.7052 37.6644 21.5425 37.2579 21.5411Z" fill="white"/>
<path d="M35.6942 30.9613H24.8432C24.7576 30.9613 24.673 30.9781 24.5939 31.0109C24.5149 31.0436 24.4431 31.0916 24.3826 31.1521C24.3222 31.2125 24.2742 31.2843 24.2415 31.3633C24.2087 31.4424 24.1919 31.5271 24.1919 31.6126C24.1919 31.6981 24.2087 31.7828 24.2415 31.8618C24.2742 31.9408 24.3222 32.0126 24.3826 32.0731C24.4431 32.1336 24.5149 32.1816 24.5939 32.2143C24.673 32.247 24.7576 32.2639 24.8432 32.2639H35.6942C35.8669 32.2639 36.0326 32.1952 36.1547 32.0731C36.2769 31.951 36.3455 31.7853 36.3455 31.6126C36.3455 31.4399 36.2769 31.2742 36.1547 31.1521C36.0326 31.0299 35.8669 30.9613 35.6942 30.9613Z" fill="#6C63FF"/>
<path d="M27.2287 27.3907H24.8432C24.6704 27.3907 24.5048 27.4594 24.3827 27.5815C24.2605 27.7036 24.1919 27.8693 24.1919 28.042C24.1919 28.2148 24.2605 28.3804 24.3827 28.5025C24.5048 28.6247 24.6704 28.6933 24.8432 28.6933H27.2287C27.4014 28.6933 27.5671 28.6247 27.6892 28.5025C27.8113 28.3804 27.8799 28.2148 27.8799 28.042C27.8799 27.8693 27.8113 27.7036 27.6892 27.5815C27.5671 27.4594 27.4014 27.3907 27.2287 27.3907Z" fill="#6C63FF"/>
<path d="M35.6942 36.6869H24.8432C24.6704 36.6869 24.5048 36.7555 24.3826 36.8776C24.2605 36.9998 24.1919 37.1654 24.1919 37.3382C24.1919 37.5109 24.2605 37.6766 24.3826 37.7987C24.5048 37.9208 24.6704 37.9895 24.8432 37.9895H35.6942C35.8669 37.9895 36.0326 37.9208 36.1547 37.7987C36.2769 37.6766 36.3455 37.5109 36.3455 37.3382C36.3455 37.1654 36.2769 36.9998 36.1547 36.8776C36.0326 36.7555 35.8669 36.6869 35.6942 36.6869Z" fill="#6C63FF"/>
<path d="M35.6943 33.8252H24.8433C24.6709 33.8252 24.5055 33.8937 24.3835 34.0156C24.2616 34.1376 24.1931 34.3029 24.1931 34.4754C24.1931 34.6478 24.2616 34.8132 24.3835 34.9351C24.5055 35.0571 24.6709 35.1256 24.8433 35.1256H35.6943C35.8668 35.1256 36.0322 35.0571 36.1541 34.9351C36.276 34.8132 36.3445 34.6478 36.3445 34.4754C36.3445 34.3029 36.276 34.1376 36.1541 34.0156C36.0322 33.8937 35.8668 33.8252 35.6943 33.8252Z" fill="#6C63FF"/>
<path d="M33.5857 29.6936C32.8237 29.6936 32.0789 29.4676 31.4453 29.0443C30.8118 28.621 30.318 28.0193 30.0264 27.3154C29.7348 26.6114 29.6585 25.8368 29.8072 25.0895C29.9558 24.3422 30.3227 23.6557 30.8615 23.1169C31.4003 22.5781 32.0868 22.2112 32.8341 22.0626C33.5814 21.9139 34.356 21.9902 35.06 22.2818C35.7639 22.5734 36.3656 23.0672 36.7889 23.7007C37.2123 24.3343 37.4382 25.0791 37.4382 25.8411C37.4371 26.8625 37.0308 27.8417 36.3086 28.5639C35.5863 29.2862 34.6071 29.6924 33.5857 29.6936ZM33.5857 22.2563C32.8767 22.2563 32.1836 22.4665 31.5941 22.8604C31.0046 23.2543 30.5451 23.8142 30.2738 24.4692C30.0024 25.1242 29.9314 25.845 30.0697 26.5404C30.2081 27.2358 30.5495 27.8746 31.0508 28.3759C31.5522 28.8772 32.1909 29.2187 32.8863 29.357C33.5817 29.4953 34.3025 29.4243 34.9575 29.153C35.6126 28.8817 36.1724 28.4222 36.5663 27.8327C36.9602 27.2432 37.1705 26.5501 37.1705 25.8411C37.1694 24.8906 36.7914 23.9795 36.1193 23.3074C35.4473 22.6354 34.5361 22.2573 33.5857 22.2563Z" fill="#6C63FF"/>
<path d="M35.2039 27.3333C34.9377 25.9594 34.3835 24.6576 33.5777 23.5135C33.5595 23.4838 33.534 23.4593 33.5037 23.4423C33.4733 23.4253 33.4391 23.4164 33.4043 23.4164C33.3695 23.4164 33.3353 23.4253 33.3049 23.4423C33.2746 23.4593 33.2491 23.4838 33.2309 23.5135C32.5291 24.741 32.0805 26.0968 31.9116 27.5007C31.8804 27.7566 32.2823 27.7544 32.3132 27.5007C32.3697 27.0457 32.4576 26.5952 32.5765 26.1524C32.5919 26.1494 32.6069 26.1448 32.6214 26.1387C33.1553 25.8706 33.7586 25.7724 34.3501 25.8572C34.3552 25.858 34.3602 25.8568 34.3653 25.8573C34.5607 26.3711 34.7116 26.9006 34.8166 27.4401C34.8656 27.6936 35.2527 27.5862 35.2039 27.3333ZM32.721 25.66C32.9054 25.0881 33.14 24.5337 33.4223 24.0033C33.721 24.4598 33.9804 24.9408 34.1977 25.4411C33.6953 25.4033 33.1909 25.4781 32.721 25.66Z" fill="#6C63FF"/>
</g>
<defs>
<clipPath id="clip0_7_121">
<rect width="147" height="147" fill="white"/>
</clipPath>
</defs>
</svg>
